<?xml version="1.0" encoding="UTF-8" standalone="no"?>
<!DOCTYPE svg PUBLIC "-//W3C//DTD SVG 1.1//EN" "http://www.w3.org/Graphics/SVG/1.1/DTD/svg11.dtd">
<svg width="100%" height="100%" viewBox="0 0 726 725" version="1.1" xmlns="http://www.w3.org/2000/svg" xmlns:xlink="http://www.w3.org/1999/xlink" xml:space="preserve" xmlns:serif="http://www.serif.com/" style="fill-rule:evenodd;clip-rule:evenodd;stroke-linejoin:round;stroke-miterlimit:2;">
    <g id="Artboard1" transform="matrix(1.37249,0,0,1.0349,-359.349,-45.08)">
        <rect x="261.822" y="43.56" width="528.245" height="700.553" style="fill:none;"/>
        <g transform="matrix(0.728601,0,0,0.96628,261.822,43.5598)">
            <path d="M211.541,234.973C157.107,279.181 122.3,346.635 122.3,422.155C122.3,555.181 230.301,663.183 363.328,663.183C432.529,663.183 494.957,633.957 538.935,587.183C544.127,599.889 555.783,609.276 569.805,611.247C521.725,672.392 447.08,711.693 363.328,711.693C218.429,711.693 100.79,594.053 100.79,449.155C100.79,360.795 144.535,282.572 211.541,234.973ZM515.116,234.973C582.122,282.572 625.867,360.795 625.867,449.155C625.867,484.264 618.96,517.772 606.435,548.39C599.629,539.567 589.158,533.713 577.313,533.119C594.591,499.894 604.356,462.156 604.356,422.155C604.356,346.635 569.549,279.181 515.116,234.973Z" style="fill:white;"/>
        </g>
        <g transform="matrix(0.728601,0,0,0.96628,143.34,13.7641)">
            <g transform="matrix(0.822878,0,0,0.778597,-266.399,-41.0742)">
                <circle cx="582.851" cy="594.382" r="39.281" style="fill:white;"/>
            </g>
            <g transform="matrix(0.822878,0,0,0.778597,257.155,139.821)">
                <circle cx="582.851" cy="594.382" r="39.281" style="fill:white;"/>
            </g>
            <g transform="matrix(0.723247,0,0,0.723247,-135.13,-266.038)">
                <circle cx="582.851" cy="594.382" r="39.281" style="fill:white;"/>
            </g>
            <g transform="matrix(0.464944,0,0,0.450184,369.386,-105.184)">
                <circle cx="582.851" cy="594.382" r="39.281" style="fill:white;"/>
            </g>
            <g transform="matrix(0.191882,0,0,0.191882,222.449,60.6681)">
                <circle cx="582.851" cy="594.382" r="39.281" style="fill:white;"/>
            </g>
            <g transform="matrix(0.191882,0,0,0.191882,683.965,445.651)">
                <circle cx="582.851" cy="594.382" r="39.281" style="fill:white;"/>
            </g>
        </g>
        <g transform="matrix(0.728601,0,0,0.96628,194.035,-91.8252)">
            <path d="M452.165,154.418L439.483,154.692C439.483,154.692 429.027,228.346 376.956,329.586C376.137,417.052 376.304,538.358 318.514,609.097C318.514,609.097 336.901,635.974 371.488,644.177C375.024,645.015 391.091,700.123 378.699,749.963C378.309,751.532 407.584,781.231 459.858,781.873C509.108,782.478 535.415,750.416 535.238,749.343C524.378,683.333 540.352,645.273 541.379,644.961C580.499,633.08 593.945,610.174 592.323,608.065C530.681,527.974 538.834,331.667 538.261,330.487C487.65,226.266 473.799,154.535 473.799,154.535L462.096,154.652C461.134,153.956 460.309,383.399 461.931,461.702C462.23,476.095 485.119,500.381 476.096,513.849C466.281,528.499 457.598,516.528 457.598,516.528C457.598,516.528 449.717,529.131 439.458,515.262C428.766,500.81 452.515,475.691 452.427,462.052C451.931,385.4 451.894,154.047 452.165,154.418Z" style="fill:white;"/>
        </g>
    </g>
</svg>
