<?xml version="1.0" encoding="UTF-8" standalone="no"?>
<!DOCTYPE svg PUBLIC "-//W3C//DTD SVG 1.1//EN" "http://www.w3.org/Graphics/SVG/1.1/DTD/svg11.dtd">
<svg width="100%" height="100%" viewBox="0 0 726 725" version="1.1" xmlns="http://www.w3.org/2000/svg" xmlns:xlink="http://www.w3.org/1999/xlink" xml:space="preserve" xmlns:serif="http://www.serif.com/" style="fill-rule:evenodd;clip-rule:evenodd;stroke-linecap:round;stroke-linejoin:round;stroke-miterlimit:1.5;">
    <g id="Artboard1" transform="matrix(1.37249,0,0,1.0349,-359.349,-45.08)">
        <rect x="261.822" y="43.56" width="528.245" height="700.553" style="fill:none;"/>
        <g transform="matrix(0.728601,0,0,0.96628,261.822,43.5598)">
            <path d="M569.805,611.247C521.725,672.392 447.08,711.693 363.328,711.693C218.429,711.693 100.79,594.053 100.79,449.155C100.79,304.256 218.429,186.616 363.328,186.616C508.227,186.616 625.867,304.256 625.867,449.155C625.867,484.264 618.96,517.772 606.435,548.39C599.248,539.074 587.977,533.069 575.314,533.069C553.634,533.069 536.033,550.67 536.033,572.35C536.033,592.161 550.73,608.566 569.805,611.247Z" style="fill:rgb(51,51,51);"/>
        </g>
        <g transform="matrix(0.728601,0,0,0.96628,173.936,-57.5889)">
            <circle cx="483.951" cy="526.833" r="241.028" style="fill:url(#_Radial1);"/>
        </g>
        <g transform="matrix(0.728601,0,0,0.96628,143.34,13.7641)">
            <g transform="matrix(0.822878,0,0,0.778597,-266.399,-41.0742)">
                <circle cx="582.851" cy="594.382" r="39.281" style="fill:rgb(51,51,51);"/>
            </g>
            <g transform="matrix(0.822878,0,0,0.778597,257.155,139.821)">
                <circle cx="582.851" cy="594.382" r="39.281" style="fill:rgb(51,51,51);"/>
            </g>
            <g transform="matrix(0.723247,0,0,0.723247,-135.13,-266.038)">
                <circle cx="582.851" cy="594.382" r="39.281" style="fill:rgb(51,51,51);"/>
            </g>
            <g transform="matrix(0.464944,0,0,0.450184,369.386,-105.184)">
                <circle cx="582.851" cy="594.382" r="39.281" style="fill:rgb(51,51,51);"/>
            </g>
            <g transform="matrix(0.191882,0,0,0.191882,222.449,60.6681)">
                <circle cx="582.851" cy="594.382" r="39.281" style="fill:rgb(51,51,51);"/>
            </g>
            <g transform="matrix(0.191882,0,0,0.191882,683.965,445.651)">
                <circle cx="582.851" cy="594.382" r="39.281" style="fill:rgb(51,51,51);"/>
            </g>
        </g>
        <g transform="matrix(0.728601,0,0,0.96628,194.035,-91.8252)">
            <path d="M452.165,154.418L439.483,154.692C439.483,154.692 429.027,228.346 376.956,329.586C376.137,417.052 376.304,538.358 318.514,609.097C318.514,609.097 336.901,635.974 371.488,644.177C375.024,645.015 391.091,700.123 378.699,749.963C378.309,751.532 407.584,781.231 459.858,781.873C509.108,782.478 535.415,750.416 535.238,749.343C524.378,683.333 540.352,645.273 541.379,644.961C580.499,633.08 593.945,610.174 592.323,608.065C530.681,527.974 538.834,331.667 538.261,330.487C487.65,226.266 473.799,154.535 473.799,154.535L462.096,154.652C461.134,153.956 460.309,383.399 461.931,461.702C462.23,476.095 485.119,500.381 476.096,513.849C466.281,528.499 457.598,516.528 457.598,516.528C457.598,516.528 449.717,529.131 439.458,515.262C428.766,500.81 452.515,475.691 452.427,462.052C451.931,385.4 451.894,154.047 452.165,154.418Z" style="fill:rgb(51,51,51);stroke:black;stroke-width:3.17px;"/>
        </g>
        <g transform="matrix(0.61745,0,0,0.818871,-5.33308,165.296)">
            <g transform="matrix(96,0,0,96,738.453,417.922)">
                <path d="M1.549,-0.678L1.51,-0.549L1.492,-0.552L1.495,-0.562C1.497,-0.57 1.498,-0.576 1.498,-0.582C1.498,-0.599 1.485,-0.607 1.458,-0.607C1.422,-0.607 1.388,-0.589 1.356,-0.553C1.324,-0.517 1.299,-0.469 1.282,-0.41C1.272,-0.375 1.259,-0.317 1.244,-0.235C1.229,-0.153 1.222,-0.102 1.222,-0.081C1.222,-0.064 1.229,-0.056 1.244,-0.056C1.255,-0.056 1.27,-0.061 1.29,-0.07L1.298,-0.055C1.284,-0.049 1.259,-0.039 1.223,-0.025C1.196,-0.015 1.172,-0.005 1.151,0.004C1.151,-0.025 1.158,-0.079 1.172,-0.158C1.185,-0.238 1.201,-0.315 1.22,-0.39L1.202,-0.368C1.188,-0.35 1.166,-0.322 1.136,-0.285L1.029,-0.153L0.921,-0.019L0.91,-0.005L0.898,-0.014C0.909,-0.036 0.915,-0.058 0.915,-0.08C0.915,-0.116 0.907,-0.172 0.89,-0.247L0.875,-0.313C0.874,-0.313 0.873,-0.317 0.872,-0.323C0.795,-0.219 0.714,-0.14 0.631,-0.084C0.548,-0.029 0.467,-0.001 0.389,-0.001C0.337,-0.001 0.288,-0.013 0.242,-0.035C0.196,-0.058 0.16,-0.088 0.134,-0.126C0.104,-0.17 0.088,-0.221 0.088,-0.28C0.088,-0.356 0.115,-0.418 0.167,-0.466C0.22,-0.513 0.288,-0.537 0.373,-0.537C0.422,-0.537 0.466,-0.528 0.506,-0.509C0.546,-0.491 0.597,-0.455 0.66,-0.403C0.684,-0.383 0.702,-0.374 0.713,-0.374C0.727,-0.374 0.75,-0.382 0.782,-0.4L0.792,-0.385L0.668,-0.317L0.655,-0.329C0.596,-0.385 0.538,-0.427 0.48,-0.457C0.423,-0.487 0.371,-0.502 0.323,-0.502C0.262,-0.502 0.212,-0.484 0.176,-0.448C0.139,-0.412 0.12,-0.364 0.12,-0.304C0.12,-0.229 0.148,-0.168 0.203,-0.121C0.259,-0.075 0.331,-0.051 0.42,-0.051C0.498,-0.051 0.575,-0.076 0.651,-0.127C0.726,-0.177 0.799,-0.251 0.868,-0.348C0.861,-0.383 0.858,-0.413 0.858,-0.437C0.858,-0.495 0.871,-0.553 0.897,-0.61C0.923,-0.667 0.949,-0.696 0.976,-0.696C1.002,-0.696 1.015,-0.673 1.015,-0.628C1.015,-0.599 1.007,-0.566 0.992,-0.529C0.976,-0.491 0.95,-0.443 0.914,-0.385C0.918,-0.368 0.925,-0.338 0.936,-0.296C0.954,-0.224 0.966,-0.162 0.971,-0.11C0.979,-0.12 0.984,-0.127 0.987,-0.13L1.019,-0.169L1.247,-0.452C1.301,-0.518 1.34,-0.564 1.364,-0.588C1.388,-0.612 1.414,-0.632 1.441,-0.647C1.477,-0.668 1.513,-0.678 1.549,-0.678ZM0.911,-0.416C0.93,-0.449 0.946,-0.484 0.958,-0.519C0.97,-0.554 0.976,-0.584 0.976,-0.607C0.976,-0.632 0.967,-0.645 0.95,-0.645C0.937,-0.645 0.926,-0.631 0.917,-0.604C0.907,-0.576 0.903,-0.543 0.903,-0.504C0.903,-0.479 0.905,-0.45 0.911,-0.416Z" style="fill:rgb(255,245,123);fill-rule:nonzero;"/>
            </g>
            <g transform="matrix(1,0,0,1,125,0)">
                <g transform="matrix(96,0,0,96,738.453,417.922)">
                    <path d="M0.561,-0.667L1.067,-0.667L1.064,-0.655C0.998,-0.448 0.919,-0.293 0.827,-0.191C0.774,-0.132 0.712,-0.086 0.641,-0.052C0.569,-0.018 0.498,-0.001 0.426,-0.001C0.322,-0.001 0.24,-0.029 0.18,-0.084C0.119,-0.141 0.088,-0.211 0.088,-0.293C0.088,-0.359 0.11,-0.413 0.154,-0.455C0.197,-0.497 0.254,-0.518 0.322,-0.518C0.387,-0.518 0.45,-0.498 0.511,-0.457C0.542,-0.473 0.576,-0.482 0.612,-0.482C0.656,-0.482 0.691,-0.466 0.719,-0.435C0.747,-0.404 0.76,-0.364 0.76,-0.314C0.76,-0.272 0.744,-0.222 0.712,-0.164C0.641,-0.261 0.562,-0.344 0.473,-0.411C0.428,-0.369 0.406,-0.315 0.406,-0.248C0.406,-0.22 0.41,-0.19 0.418,-0.159C0.389,-0.18 0.374,-0.21 0.374,-0.249C0.374,-0.31 0.402,-0.368 0.458,-0.422C0.398,-0.467 0.341,-0.489 0.287,-0.489C0.237,-0.489 0.196,-0.473 0.163,-0.439C0.13,-0.406 0.114,-0.364 0.114,-0.313C0.114,-0.246 0.14,-0.188 0.193,-0.14C0.224,-0.111 0.264,-0.089 0.313,-0.073C0.363,-0.056 0.415,-0.048 0.471,-0.048C0.625,-0.048 0.751,-0.115 0.85,-0.248C0.912,-0.33 0.966,-0.45 1.013,-0.606L0.635,-0.606L0.595,-0.604C0.58,-0.603 0.568,-0.6 0.56,-0.594C0.552,-0.587 0.545,-0.577 0.539,-0.561L0.536,-0.555L0.518,-0.559L0.522,-0.57C0.529,-0.586 0.535,-0.601 0.541,-0.615L0.557,-0.657C0.557,-0.658 0.558,-0.661 0.561,-0.667ZM0.727,-0.239C0.736,-0.264 0.74,-0.286 0.74,-0.307C0.74,-0.349 0.726,-0.385 0.698,-0.415C0.669,-0.445 0.636,-0.46 0.596,-0.46C0.575,-0.46 0.552,-0.455 0.528,-0.445C0.595,-0.397 0.661,-0.328 0.727,-0.239Z" style="fill:rgb(255,245,123);fill-rule:nonzero;"/>
                </g>
            </g>
        </g>
    </g>
    <defs>
        <radialGradient id="_Radial1" cx="0" cy="0" r="1" gradientUnits="userSpaceOnUse" gradientTransform="matrix(382.514,-8.10223,8.10223,382.514,410.754,480.535)"><stop offset="0" style="stop-color:rgb(255,245,123);stop-opacity:1"/><stop offset="0.48" style="stop-color:rgb(254,204,81);stop-opacity:1"/><stop offset="0.61" style="stop-color:rgb(252,176,51);stop-opacity:1"/><stop offset="1" style="stop-color:rgb(250,150,27);stop-opacity:1"/></radialGradient>
    </defs>
</svg>
