<?xml version="1.0" standalone="no"?>
<!DOCTYPE svg PUBLIC "-//W3C//DTD SVG 20010904//EN"
 "http://www.w3.org/TR/2001/REC-SVG-20010904/DTD/svg10.dtd">
<svg version="1.0" xmlns="http://www.w3.org/2000/svg"
 width="1739.000000pt" height="1739.000000pt" viewBox="0 0 1739.000000 1739.000000"
 preserveAspectRatio="xMidYMid meet">
<metadata>
Created by potrace 1.14, written by Peter Selinger 2001-2017
</metadata>
<g transform="translate(0.000000,1739.000000) scale(0.100000,-0.100000)"
fill="#000000" stroke="none">
<path d="M5847 14604 c-1 -1 -78 -5 -172 -8 -93 -3 -190 -8 -215 -10 -25 -2
-83 -7 -130 -12 -47 -4 -97 -7 -112 -7 -16 0 -28 -2 -28 -6 0 -3 -24 -7 -53
-8 -28 -1 -68 -4 -87 -6 -19 -3 -57 -8 -85 -12 -27 -4 -70 -11 -95 -16 -25 -5
-58 -11 -75 -14 -16 -2 -48 -7 -70 -10 -22 -3 -51 -7 -65 -8 -14 -1 -27 -5
-30 -9 -3 -3 -25 -9 -50 -13 -24 -4 -51 -10 -60 -14 -8 -5 -21 -6 -27 -4 -7 3
-13 1 -13 -4 0 -4 -10 -8 -22 -9 -13 0 -34 -4 -48 -7 -123 -30 -159 -41 -155
-47 2 -4 -7 -5 -20 -2 -14 2 -25 0 -25 -6 0 -6 -8 -11 -17 -11 -19 0 -38 -4
-63 -14 -8 -3 -37 -13 -65 -22 -27 -8 -57 -18 -65 -22 -8 -3 -17 -7 -20 -7 -7
-2 -101 -36 -125 -46 -18 -8 -53 -21 -65 -25 -3 -1 -18 -7 -35 -14 -16 -6 -55
-22 -85 -34 -30 -12 -58 -26 -61 -30 -3 -5 -8 -8 -10 -6 -7 4 -79 -25 -79 -31
0 -4 -6 -7 -13 -7 -19 0 -151 -63 -159 -77 -4 -6 -8 -7 -8 -3 0 5 -15 0 -32
-10 -18 -11 -67 -39 -108 -63 -41 -25 -78 -49 -82 -55 -4 -5 -8 -7 -8 -3 0 7
-24 -9 -105 -70 -5 -4 -22 -15 -36 -24 -14 -9 -34 -24 -43 -33 -9 -9 -16 -13
-16 -9 0 4 -8 -1 -18 -12 -10 -10 -31 -28 -46 -39 -15 -11 -36 -27 -46 -35
-10 -8 -27 -22 -37 -30 -99 -81 -206 -175 -222 -197 -12 -14 -21 -22 -21 -19
0 11 -296 -288 -356 -359 -90 -106 -144 -175 -144 -183 0 -5 -11 -19 -25 -32
-14 -13 -25 -29 -25 -36 0 -7 -4 -14 -9 -16 -11 -4 -126 -164 -181 -253 -24
-38 -47 -72 -51 -75 -4 -3 -9 -12 -11 -19 -2 -8 -10 -23 -17 -33 -8 -9 -26
-38 -40 -63 -64 -112 -207 -344 -233 -377 -23 -29 -30 -53 -39 -120 -10 -76
-16 -127 -18 -153 -1 -5 -18 -21 -39 -35 -20 -14 -40 -29 -43 -34 -4 -5 -31
-10 -60 -13 -29 -2 -60 -9 -68 -16 -12 -10 -13 -9 -7 1 7 12 4 12 -14 2 -12
-6 -24 -9 -27 -6 -3 2 -17 0 -32 -6 -14 -5 -36 -12 -47 -14 -31 -6 -155 -43
-179 -54 -11 -5 -57 -23 -102 -41 -46 -17 -83 -35 -83 -40 0 -5 -6 -9 -14 -9
-36 0 -184 -119 -251 -201 -83 -101 -117 -251 -90 -389 11 -58 15 -83 20 -120
2 -19 6 -47 9 -62 3 -16 8 -38 10 -50 2 -13 7 -34 10 -48 3 -14 8 -36 10 -50
3 -14 9 -40 15 -59 6 -18 10 -36 9 -40 -1 -3 1 -13 4 -21 8 -21 65 -225 78
-280 6 -25 14 -52 17 -60 3 -8 8 -26 10 -40 2 -14 8 -36 13 -50 15 -42 74
-325 86 -415 2 -16 8 -52 14 -80 5 -27 12 -70 15 -95 8 -68 14 -121 19 -165 3
-22 5 -40 6 -40 2 0 5 -33 14 -157 2 -37 7 -76 10 -85 2 -10 8 -56 11 -102 4
-47 8 -92 10 -100 1 -9 6 -50 10 -91 4 -41 9 -78 12 -83 2 -4 6 -31 8 -60 1
-28 6 -63 9 -77 3 -14 8 -41 11 -60 2 -19 6 -46 9 -60 3 -14 8 -41 10 -60 2
-20 7 -47 10 -60 3 -14 8 -36 10 -50 5 -26 33 -170 40 -205 16 -76 36 -174 40
-195 3 -14 12 -61 20 -105 8 -44 18 -93 20 -110 3 -16 10 -55 16 -85 6 -30 13
-77 16 -105 3 -27 7 -56 10 -63 2 -8 7 -37 10 -65 2 -29 7 -63 11 -77 3 -14 7
-52 10 -85 2 -33 6 -85 9 -115 10 -111 13 -148 19 -275 6 -148 7 -486 0 -780
-8 -386 -5 -710 10 -985 4 -63 8 -142 10 -175 2 -33 6 -91 9 -130 3 -38 9
-113 12 -165 3 -52 7 -115 9 -140 2 -25 7 -85 10 -135 4 -49 9 -108 11 -130 2
-22 6 -65 9 -95 9 -107 14 -165 19 -200 3 -19 7 -57 11 -85 9 -74 15 -114 25
-180 16 -96 20 -118 26 -145 3 -14 8 -38 11 -55 3 -16 9 -38 14 -47 5 -10 7
-18 5 -18 -7 0 39 -129 67 -190 59 -127 176 -236 252 -235 17 0 33 -4 37 -10
5 -6 8 -6 8 0 0 11 59 13 77 2 6 -4 14 -4 17 1 2 4 40 9 83 11 80 2 94 4 198
15 61 7 100 13 100 16 0 2 22 6 70 14 22 4 47 8 55 11 21 6 73 16 88 17 6 1
12 4 12 7 0 3 10 7 23 7 21 2 62 11 62 14 0 1 11 3 25 5 14 3 32 6 40 8 104
24 130 31 130 37 0 4 8 7 18 7 25 -2 125 24 139 36 7 5 13 7 13 4 0 -3 15 -1
33 5 17 5 48 14 67 19 41 11 41 11 100 29 25 8 48 14 53 16 4 1 9 3 12 4 3 1
8 3 13 4 4 2 27 9 52 16 25 7 47 14 50 14 3 1 10 4 15 8 6 3 27 9 48 13 20 4
37 11 37 17 0 5 5 6 10 3 6 -3 16 -3 23 2 6 4 17 9 22 10 28 7 41 11 55 16 25
10 114 39 130 42 8 2 17 4 20 5 3 1 8 2 13 1 4 0 7 3 7 7 0 5 6 9 13 10 27 4
53 10 67 15 50 21 103 36 111 31 5 -3 9 -1 9 4 0 11 47 26 73 23 9 -1 17 2 17
6 0 7 79 34 110 38 3 0 10 3 15 7 6 3 27 9 48 12 21 3 46 10 55 15 9 5 20 10
24 10 4 1 13 3 20 6 7 2 54 15 103 30 50 14 113 32 140 40 80 24 89 27 103 27
6 1 12 4 12 8 0 4 6 7 13 7 13 0 152 40 177 50 8 4 20 7 25 8 6 0 15 3 20 6
11 7 183 60 200 63 6 0 12 3 15 6 3 3 39 16 80 29 41 13 89 28 105 35 17 6 32
11 35 11 3 0 10 3 15 6 6 3 33 12 60 19 28 7 56 18 63 23 7 5 15 7 19 4 3 -4
12 -2 20 4 7 6 13 8 13 4 0 -4 7 -2 15 5 8 6 19 9 25 5 5 -3 13 0 16 9 3 8 11
13 18 10 7 -3 26 1 42 7 29 12 43 16 67 22 6 1 18 6 25 11 7 4 16 5 19 2 3 -3
14 -1 25 5 11 6 28 12 39 15 10 2 29 7 42 10 12 3 27 6 32 7 6 2 16 6 23 10 6
5 16 6 21 3 5 -4 11 -2 13 3 1 5 17 12 33 15 56 10 100 23 125 36 14 7 26 12
28 11 6 -5 73 12 78 20 3 5 16 9 29 9 13 0 26 6 28 13 4 9 6 9 6 -1 1 -10 5
-10 24 0 12 7 25 11 29 10 4 -1 23 5 42 13 20 9 39 15 43 15 18 1 89 23 99 31
6 5 14 6 17 2 4 -3 13 0 22 7 8 7 15 10 15 6 0 -3 17 0 38 8 45 17 183 59 197
61 6 1 17 4 25 8 22 9 205 67 227 72 10 2 32 9 48 16 17 7 32 13 35 14 19 6
97 28 105 30 6 1 23 7 38 13 15 7 40 15 55 18 15 4 32 9 37 13 6 3 12 6 15 6
22 4 77 19 85 24 6 3 12 6 15 6 19 2 148 38 162 46 9 5 30 11 45 14 15 3 53
12 83 20 30 9 62 18 70 20 8 2 15 4 15 5 0 1 7 3 15 5 8 2 40 10 70 19 30 8
66 18 80 21 14 4 32 9 40 12 8 3 22 7 30 8 8 2 24 5 35 8 11 3 27 7 35 9 10 2
14 -4 12 -22 -4 -50 17 -61 122 -64 53 -1 99 -6 102 -9 4 -3 15 -2 25 4 11 5
19 6 19 2 0 -7 74 -10 265 -13 6 0 28 1 50 3 22 2 47 0 56 -5 9 -4 19 -4 23 0
12 11 206 9 198 -2 -4 -8 -1 -8 9 -1 16 12 79 13 97 1 6 -4 12 -4 12 1 0 4 53
9 118 9 222 3 382 9 382 14 0 3 10 6 21 7 29 2 33 8 33 47 0 20 5 33 13 33 7
0 13 -4 13 -8 0 -4 8 -8 18 -8 20 0 29 -2 107 -26 33 -10 65 -19 70 -20 6 -1
12 -3 15 -4 3 -2 12 -4 20 -6 8 -2 58 -15 110 -29 85 -24 118 -32 154 -39 6
-1 13 -5 16 -9 3 -4 21 -9 40 -12 34 -4 50 -8 88 -23 9 -3 20 -7 25 -8 4 -2 9
-4 12 -5 3 -1 10 -4 15 -5 6 -1 12 -4 15 -5 3 -1 13 -3 23 -4 9 -1 23 -5 30
-9 6 -5 16 -5 22 -2 6 3 10 2 10 -3 0 -9 37 -25 52 -23 4 0 20 -5 35 -11 15
-7 33 -13 38 -13 6 -1 23 -7 38 -13 16 -7 32 -12 36 -12 4 0 37 -10 72 -21 35
-12 69 -22 74 -24 6 -1 17 -5 25 -8 8 -3 33 -11 55 -17 22 -6 47 -14 55 -17
21 -8 43 -14 58 -15 6 -1 12 -6 12 -11 0 -6 2 -8 6 -5 3 3 37 -5 75 -18 39
-13 77 -24 85 -24 8 0 22 -4 32 -9 9 -5 51 -19 92 -31 88 -25 119 -35 180 -54
25 -8 62 -17 83 -21 20 -4 40 -11 43 -16 3 -5 16 -9 30 -9 14 0 38 -7 54 -15
16 -8 33 -14 37 -13 4 1 35 -7 68 -17 33 -11 64 -18 69 -17 4 2 13 -2 20 -7 6
-5 23 -12 36 -14 14 -3 45 -11 70 -18 25 -7 50 -13 55 -15 6 -1 29 -9 53 -18
23 -8 42 -13 42 -10 0 2 14 -3 31 -11 17 -9 37 -14 45 -11 8 3 14 2 14 -2 0
-6 117 -45 140 -47 3 0 11 -4 18 -8 6 -5 17 -5 22 -2 6 3 10 2 10 -3 0 -5 25
-15 55 -22 30 -7 55 -17 55 -21 0 -4 9 -6 20 -4 11 2 20 -1 20 -7 0 -6 3 -9 6
-5 3 3 26 -3 50 -13 24 -11 44 -17 44 -15 0 2 21 -5 46 -15 25 -11 50 -18 55
-14 5 3 9 0 9 -7 0 -7 3 -9 7 -6 3 4 12 2 20 -4 7 -6 13 -9 13 -6 0 3 16 -1
35 -9 19 -8 35 -11 35 -8 0 4 6 1 13 -5 8 -6 24 -13 38 -15 13 -3 24 -5 24 -6
0 -1 9 -4 20 -6 26 -6 37 -9 57 -18 9 -4 22 -9 30 -10 7 -2 21 -6 30 -10 9 -4
22 -9 30 -10 7 -2 20 -6 28 -9 8 -4 24 -8 35 -10 11 -2 51 -13 89 -25 68 -22
110 -33 134 -34 6 -1 12 -4 12 -8 0 -3 27 -12 60 -18 33 -7 60 -17 60 -23 0
-6 4 -8 8 -5 8 5 216 -53 267 -74 40 -16 350 -113 363 -113 6 0 12 -4 12 -9 0
-5 5 -6 10 -3 6 3 10 1 10 -5 0 -6 4 -9 8 -6 5 3 46 -9 93 -25 46 -16 95 -32
108 -35 13 -3 34 -10 45 -16 12 -6 22 -11 23 -10 2 1 8 0 15 -2 23 -6 132 -38
148 -44 8 -2 22 -6 30 -7 8 -2 52 -14 97 -28 45 -13 85 -22 88 -19 3 3 5 1 5
-5 0 -5 6 -10 13 -11 18 -1 69 -12 92 -19 25 -9 18 -7 93 -23 34 -8 62 -17 62
-20 0 -3 10 -7 23 -7 42 -3 67 -7 67 -13 0 -3 10 -6 23 -7 12 -1 31 -3 42 -6
67 -18 105 -24 110 -19 3 3 5 1 5 -4 0 -5 17 -10 37 -12 20 -1 42 -7 50 -13
10 -9 13 -8 13 1 0 9 4 9 13 3 6 -6 19 -11 27 -11 47 -3 109 -10 116 -14 5 -2
49 -6 99 -7 49 -2 98 -7 107 -12 10 -5 18 -6 18 -1 0 12 124 9 132 -3 5 -6 8
-6 8 2 0 6 11 10 25 8 14 -1 25 1 25 6 0 4 9 11 21 14 38 13 167 156 174 195
1 3 9 23 19 45 25 56 56 145 50 145 -2 0 2 13 11 30 8 16 15 31 14 32 -2 3 3
32 16 98 17 84 44 263 51 335 12 124 22 210 24 210 0 0 3 27 5 60 2 33 7 87
10 120 3 33 8 92 10 130 6 87 14 202 20 280 3 33 8 98 11 145 3 47 7 108 9
135 18 280 20 407 15 1530 -2 304 2 461 15 590 3 28 7 84 10 125 3 41 7 82 10
90 2 8 6 38 10 65 3 28 8 66 11 85 2 19 7 53 10 75 9 74 13 100 14 100 2 0 6
22 14 69 4 21 8 48 11 60 2 12 7 39 10 61 3 22 7 47 10 55 2 8 6 26 9 40 3 14
7 36 10 50 3 13 8 42 12 64 3 22 7 44 10 47 2 4 6 22 8 40 3 19 12 67 20 106
9 40 18 85 21 100 3 16 7 39 10 53 3 14 8 41 11 60 3 19 7 43 10 53 3 10 7 32
10 50 2 18 7 50 10 72 3 22 7 54 9 70 2 17 6 41 9 55 3 14 7 50 10 80 4 30 8
66 11 80 4 22 9 71 20 195 10 100 22 218 30 285 3 25 6 52 6 60 1 8 12 94 26
190 25 177 33 235 35 258 1 6 4 12 7 12 3 0 7 12 7 28 1 15 7 50 13 77 6 28
14 61 17 75 3 14 10 43 16 65 6 22 12 47 13 55 1 8 5 25 9 37 4 12 9 30 11 40
2 10 20 77 40 148 21 72 39 137 40 145 2 8 4 15 5 15 1 0 3 8 5 19 3 15 12 54
30 126 1 3 5 16 9 30 4 14 9 39 11 55 2 17 4 30 5 30 3 0 12 50 25 135 8 57
14 93 20 120 22 99 -14 290 -65 340 -3 3 -18 23 -34 44 -31 42 -117 126 -128
126 -4 0 -13 7 -21 14 -27 28 -187 112 -224 118 -10 2 -20 5 -23 8 -5 5 -62
28 -85 34 -5 2 -17 5 -25 8 -18 7 -97 29 -119 33 -9 2 -29 9 -46 16 -16 7 -41
14 -55 15 -62 7 -86 12 -101 18 -9 4 -20 6 -25 5 -13 -4 -84 33 -84 43 0 5 -4
6 -10 3 -6 -3 -11 1 -11 9 -1 9 -2 19 -3 24 -2 4 -6 43 -10 87 -11 119 -13
124 -43 167 -15 21 -33 47 -38 57 -6 10 -22 36 -36 57 -13 22 -30 48 -36 59
-74 125 -211 348 -223 362 -5 7 -10 15 -10 18 0 10 -63 100 -72 103 -4 2 -8 9
-8 16 0 7 -9 21 -20 31 -11 10 -20 22 -20 27 0 8 -111 159 -167 227 -15 18
-32 41 -37 50 -5 9 -12 18 -15 21 -3 3 -35 39 -71 80 -60 68 -286 300 -293
300 -2 0 -32 28 -68 63 -36 34 -87 81 -114 104 -28 23 -61 51 -75 63 -14 12
-41 34 -60 49 -19 14 -37 28 -40 32 -14 16 -210 157 -210 151 0 -4 -4 -2 -8 4
-10 15 -129 94 -141 94 -6 0 -11 5 -11 10 0 6 -4 10 -9 10 -5 0 -37 16 -70 34
-34 19 -61 32 -61 28 0 -4 -4 -2 -8 3 -10 15 -49 35 -67 35 -8 0 -15 4 -15 9
0 5 -10 13 -22 16 -13 4 -47 18 -77 32 -30 14 -59 26 -65 28 -6 1 -31 10 -56
21 -25 10 -48 18 -52 16 -5 -1 -8 2 -8 6 0 9 -78 37 -92 34 -5 -1 -8 2 -8 7 0
5 -12 12 -27 16 -16 3 -56 18 -90 31 -35 14 -72 26 -83 27 -11 1 -20 4 -20 8
0 5 -46 18 -65 19 -3 0 -19 7 -35 15 -17 9 -35 13 -40 10 -6 -3 -10 -1 -10 5
0 6 -6 10 -12 9 -7 -1 -20 0 -28 4 -25 9 -86 27 -107 31 -11 3 -37 9 -56 14
-20 6 -38 7 -41 4 -3 -3 -6 -1 -6 5 0 5 -6 10 -12 11 -57 6 -79 10 -85 16 -3
3 -19 6 -35 6 -15 0 -28 3 -28 8 0 4 -15 8 -33 10 -32 2 -72 9 -72 12 0 1 -9
3 -20 4 -11 1 -36 5 -55 9 -19 4 -48 8 -65 11 -16 2 -62 10 -101 16 -39 6 -87
13 -105 15 -19 2 -34 4 -34 5 0 1 -20 3 -44 5 -25 3 -70 7 -100 10 -31 3 -92
8 -136 10 -44 3 -91 7 -105 10 -66 12 -595 21 -710 11 -25 -3 -85 -7 -135 -11
-49 -3 -101 -8 -115 -11 -14 -3 -41 -7 -60 -9 -19 -2 -55 -7 -80 -10 -25 -4
-60 -7 -77 -8 -18 -1 -33 -5 -33 -8 0 -4 -26 -9 -59 -13 -32 -4 -61 -9 -64
-13 -6 -6 -47 -13 -92 -15 -11 -1 -22 -5 -25 -9 -3 -5 -21 -10 -40 -12 -19 -2
-42 -7 -50 -10 -14 -6 -111 -32 -151 -42 -9 -2 -38 -10 -63 -19 -26 -9 -53
-16 -61 -16 -8 0 -15 -5 -15 -11 0 -5 -4 -7 -10 -4 -5 3 -16 3 -22 -2 -7 -4
-19 -8 -27 -9 -32 -5 -305 -113 -386 -153 -38 -19 -73 -34 -77 -33 -5 1 -8 -3
-8 -9 0 -5 -4 -8 -9 -4 -5 3 -12 1 -16 -5 -3 -5 -28 -20 -56 -31 -27 -12 -49
-26 -49 -31 0 -5 -4 -7 -9 -3 -5 3 -16 -2 -24 -10 -9 -8 -19 -15 -24 -15 -5 0
-25 -11 -44 -25 -20 -13 -39 -21 -43 -18 -3 4 -6 2 -6 -4 0 -6 -13 -16 -30
-23 -16 -7 -30 -16 -30 -21 0 -5 -3 -8 -7 -7 -13 3 -63 -24 -63 -34 0 -4 -6
-8 -14 -8 -8 0 -21 -6 -28 -12 -7 -7 -39 -26 -71 -43 -31 -16 -57 -34 -57 -39
0 -5 -3 -7 -6 -3 -7 7 -115 -51 -126 -67 -4 -6 -8 -8 -8 -3 0 4 -11 0 -25 -9
-14 -9 -25 -12 -25 -8 0 5 -5 2 -10 -7 -5 -8 -26 -21 -48 -28 -42 -14 -52 -11
-162 51 -25 14 -79 43 -120 65 -41 22 -103 57 -137 77 -34 20 -66 36 -71 36
-6 0 -12 4 -14 8 -4 11 -101 67 -110 64 -5 -1 -8 3 -8 10 0 6 -3 9 -6 5 -3 -3
-11 -2 -18 4 -23 19 -86 58 -86 53 0 -3 -21 10 -47 28 -27 18 -49 31 -51 30
-1 -2 -58 24 -126 58 -68 33 -131 60 -139 60 -9 0 -19 5 -22 10 -3 6 -15 10
-26 10 -10 0 -19 5 -19 11 0 5 -4 7 -10 4 -5 -3 -10 -2 -10 4 0 5 -9 8 -20 6
-11 -2 -20 0 -20 6 0 5 -4 9 -9 9 -5 0 -22 5 -38 12 -15 6 -32 10 -37 9 -4 -1
-13 3 -20 8 -6 5 -23 12 -36 14 -14 3 -52 14 -85 25 -71 24 -117 36 -127 34
-5 -1 -8 2 -8 7 0 6 -8 10 -17 10 -16 0 -53 8 -113 26 -46 14 -90 22 -90 18 0
-3 -7 0 -15 7 -8 7 -21 10 -30 7 -8 -4 -17 -2 -20 3 -3 4 -16 7 -30 6 -13 -2
-22 0 -20 5 3 4 -3 8 -12 8 -23 -1 -81 10 -113 20 -14 4 -37 6 -52 5 -16 -2
-28 1 -28 5 0 4 -15 8 -32 8 -33 1 -72 6 -138 17 -55 10 -171 17 -350 22 -91
2 -177 6 -193 7 -15 2 -28 3 -30 1z"/>
</g>
</svg>
