<?xml version="1.0" standalone="no"?>
<!DOCTYPE svg PUBLIC "-//W3C//DTD SVG 20010904//EN"
 "http://www.w3.org/TR/2001/REC-SVG-20010904/DTD/svg10.dtd">
<svg version="1.0" xmlns="http://www.w3.org/2000/svg"
 width="701.000000pt" height="701.000000pt" viewBox="0 0 701.000000 701.000000"
 preserveAspectRatio="xMidYMid meet">
<metadata>
Created by potrace 1.14, written by Peter Selinger 2001-2017
</metadata>
<g transform="translate(0.000000,701.000000) scale(0.100000,-0.100000)"
fill="#000000" stroke="none">
<path d="M3326 6978 c-113 -549 -301 -1089 -566 -1618 l-57 -115 -7 -335 c-16
-785 -63 -1213 -180 -1642 -82 -297 -222 -595 -367 -779 -16 -20 -29 -42 -29
-49 0 -21 84 -112 165 -176 88 -71 202 -134 303 -168 78 -26 82 -32 117 -169
58 -231 72 -588 30 -811 l-19 -99 54 -48 c148 -130 381 -228 617 -260 120 -16
326 -6 433 20 160 40 392 175 469 272 l24 31 -14 117 c-8 69 -14 208 -14 346
1 245 14 355 59 499 l21 70 91 36 c161 64 282 144 368 242 73 84 74 92 9 190
-242 364 -397 958 -463 1773 -5 66 -15 302 -21 525 l-11 405 -78 170 c-161
351 -292 682 -398 1005 -65 196 -145 476 -157 548 l-7 43 -71 -3 -72 -3 -6
-265 c-9 -357 -9 -2357 -1 -2645 l7 -230 67 -140 c80 -169 92 -204 85 -262
-10 -89 -101 -143 -155 -93 -27 25 -28 25 -64 -5 -16 -14 -36 -25 -44 -25 -29
0 -72 30 -94 66 -38 60 -25 124 59 308 l72 155 -1 1562 c0 859 -3 1566 -6
1570 -3 5 -36 9 -74 9 -64 0 -70 -2 -74 -22z m-47 -4087 c26 -17 15 -96 -25
-174 l-37 -72 18 -90 c10 -49 21 -98 24 -107 5 -13 31 14 108 110 176 221 228
278 277 301 25 13 54 21 64 19 18 -3 18 -6 5 -50 -14 -49 -33 -65 -33 -28 0
16 -7 20 -30 20 -40 0 -92 -48 -118 -108 -21 -49 -58 -215 -64 -287 -3 -38 -2
-40 25 -40 15 1 27 -2 27 -6 0 -9 -109 -53 -116 -46 -5 4 20 158 43 272 4 23
-22 -5 -111 -115 -63 -80 -119 -146 -124 -148 -4 -1 -7 26 -7 60 0 35 -6 89
-14 121 l-13 59 -71 -74 c-127 -131 -230 -184 -342 -175 -135 10 -225 101
-225 227 0 68 19 109 70 152 49 43 120 63 190 55 57 -7 104 -30 180 -87 49
-37 59 -41 93 -35 47 7 43 -2 -16 -34 l-44 -24 -57 46 c-84 68 -156 100 -226
100 -109 0 -166 -63 -158 -174 3 -46 11 -67 34 -96 72 -91 212 -114 335 -56
69 33 138 89 191 155 30 38 33 48 34 113 0 81 24 162 59 199 26 28 33 30 54
17z m1111 -34 c0 -24 -66 -183 -104 -250 -74 -133 -188 -229 -310 -262 -200
-54 -376 49 -376 219 0 149 134 226 289 167 38 -14 66 -17 115 -14 64 6 66 5
100 -29 20 -20 37 -49 41 -70 7 -38 -7 -103 -29 -133 -14 -19 -15 -19 -37 10
-12 17 -53 61 -91 99 -66 66 -70 68 -88 51 -28 -25 -43 -80 -37 -138 l4 -51
-18 23 c-11 13 -19 39 -19 58 0 34 30 106 50 118 18 11 10 24 -27 43 -56 28
-89 34 -133 22 -74 -20 -115 -102 -91 -182 38 -124 209 -195 371 -154 145 37
248 153 324 364 l26 72 -180 0 c-169 0 -181 -1 -192 -20 -13 -21 -28 -27 -28
-11 0 5 7 25 15 45 l15 36 205 0 c164 0 205 -3 205 -13z"/>
<path d="M3222 2833 c-15 -28 -21 -86 -13 -123 l7 -34 18 49 c22 56 26 116 9
122 -6 2 -16 -4 -21 -14z"/>
<path d="M3970 2690 c0 -5 11 -17 25 -26 14 -9 47 -43 74 -75 48 -57 49 -58
55 -33 17 66 -45 144 -115 144 -21 0 -39 -4 -39 -10z"/>
<path d="M2018 4818 c-198 -136 -425 -346 -562 -518 -264 -331 -459 -749 -536
-1148 -149 -768 47 -1560 536 -2172 88 -109 285 -306 394 -394 370 -296 823
-491 1307 -562 149 -22 557 -22 706 0 586 86 1104 343 1512 751 380 379 623
842 732 1394 26 131 27 148 27 471 0 323 -1 340 -27 471 -136 688 -485 1247
-1033 1654 -88 66 -173 121 -149 98 6 -5 44 -36 85 -69 110 -86 281 -255 373
-369 590 -731 702 -1726 292 -2570 -117 -240 -250 -428 -440 -624 -406 -418
-925 -665 -1515 -722 -149 -14 -409 -7 -560 16 -791 120 -1467 615 -1816 1330
-110 226 -176 436 -221 702 -26 153 -26 551 0 708 68 408 219 771 455 1089
116 156 334 372 497 493 58 43 18 22 -57 -29z"/>
</g>
</svg>
