<?xml version="1.0" standalone="no"?>
<!DOCTYPE svg PUBLIC "-//W3C//DTD SVG 20010904//EN"
 "http://www.w3.org/TR/2001/REC-SVG-20010904/DTD/svg10.dtd">
<svg version="1.0" xmlns="http://www.w3.org/2000/svg"
 width="701.000000pt" height="701.000000pt" viewBox="0 0 701.000000 701.000000"
 preserveAspectRatio="xMidYMid meet">
<metadata>
Created by potrace 1.14, written by Peter Selinger 2001-2017
</metadata>
<g transform="translate(0.000000,701.000000) scale(0.100000,-0.100000)"
fill="#000000" stroke="none">
<path d="M3343 7000 c-14 -6 -23 -18 -23 -31 0 -29 -45 -228 -82 -364 -99
-365 -265 -800 -454 -1193 -64 -133 -84 -185 -84 -217 l0 -41 -57 -18 c-85
-27 -287 -116 -389 -171 -49 -27 -147 -88 -219 -136 -609 -410 -1010 -1036
-1136 -1770 -27 -158 -37 -512 -20 -685 90 -904 650 -1709 1466 -2109 266
-130 519 -208 820 -250 160 -23 556 -20 730 6 459 67 874 245 1255 538 127 97
373 349 472 482 259 346 421 715 500 1139 18 96 22 164 26 408 2 186 0 324 -8
380 -75 580 -343 1124 -755 1537 -257 257 -570 462 -910 596 l-120 48 -6 53
c-4 37 -30 105 -88 228 -216 459 -436 1064 -531 1460 -13 52 -27 101 -33 108
-11 14 -114 16 -136 3 -11 -7 -14 -155 -19 -865 l-5 -856 -23 0 -24 0 -2 863
-3 862 -60 2 c-33 1 -70 -2 -82 -7z m107 -1582 l0 -1553 -46 -100 c-97 -210
-117 -281 -100 -349 10 -38 72 -103 112 -116 30 -10 40 -9 75 9 37 19 42 20
62 6 30 -21 76 -19 115 5 18 11 34 20 36 20 6 0 0 -126 -7 -137 -5 -7 -5 -13
0 -13 4 0 8 -69 8 -153 l1 -154 -42 -17 c-57 -23 -85 -52 -254 -260 l-144
-179 -23 104 -24 104 37 75 c44 90 54 149 29 174 -15 15 -20 15 -39 3 -42 -28
-71 -104 -75 -197 -4 -96 -5 -99 -93 -188 -136 -137 -306 -169 -429 -80 -76
55 -103 178 -52 246 69 95 219 78 363 -40 l55 -45 47 26 c58 31 61 43 11 36
-34 -6 -45 -1 -106 44 -82 60 -123 75 -204 75 -204 -1 -299 -224 -154 -365 57
-54 113 -73 203 -67 95 6 165 46 275 154 66 65 94 86 97 75 18 -62 27 -143 23
-184 -4 -27 -2 -47 2 -45 5 2 59 66 121 143 62 77 116 144 120 148 4 4 -4 -45
-16 -110 -13 -65 -24 -135 -24 -155 l0 -37 54 22 c56 23 73 44 29 39 l-26 -4
8 59 c9 79 41 220 59 263 20 49 52 88 88 106 35 18 58 12 58 -16 0 -11 7 -20
15 -20 22 0 7 -29 -33 -64 -43 -38 -62 -81 -62 -143 0 -57 35 -136 77 -176
l29 -27 -2 -245 c-1 -134 -5 -249 -9 -255 -3 -5 -2 -10 2 -10 11 0 11 -521 0
-537 -4 -6 -3 -14 2 -17 11 -7 9 -45 -4 -65 -5 -10 -4 -12 3 -7 15 9 16 -19 1
-46 -6 -11 -7 -18 -2 -15 12 7 10 -409 -1 -420 -15 -16 -298 -7 -384 11 -183
39 -347 111 -477 209 -80 60 -80 59 -55 197 21 114 19 448 -3 587 -23 143 -51
256 -80 312 -21 42 -26 46 -115 77 -97 34 -155 64 -237 123 -62 45 -140 117
-167 154 l-20 28 49 67 c251 344 411 842 477 1482 26 244 36 428 47 847 l10
402 88 183 c148 305 281 639 385 964 41 130 126 458 141 547 6 36 7 37 50 37
l45 0 0 -1552z m229 1515 c5 -21 13 -54 17 -73 11 -53 12 -940 0 -933 -5 4 -6
1 0 -8 13 -20 12 -329 -1 -329 -6 0 -6 -3 0 -8 14 -9 15 -203 2 -195 -6 4 -7
1 -2 -8 12 -18 15 -309 3 -309 -5 0 -5 -7 0 -17 5 -10 8 -101 7 -203 -1 -118
2 -190 9 -199 7 -9 7 -12 1 -9 -7 4 -10 -155 -10 -478 1 -351 -2 -484 -10
-484 -7 0 -32 42 -56 93 l-44 92 -6 280 c-9 379 -11 2303 -2 2593 l6 232 38 0
c36 0 39 -2 48 -37z m-422 -4132 c-2 -21 -14 -57 -26 -82 l-21 -44 3 71 c2 70
19 110 39 98 6 -4 8 -23 5 -43z m447 -223 c-1 -73 -2 -135 -3 -137 -3 -10 -35
27 -52 60 -34 68 -19 157 33 193 12 9 23 16 23 16 1 0 0 -60 -1 -132z"/>
</g>
</svg>
