<?xml version="1.0" standalone="no"?>
<!DOCTYPE svg PUBLIC "-//W3C//DTD SVG 20010904//EN"
 "http://www.w3.org/TR/2001/REC-SVG-20010904/DTD/svg10.dtd">
<svg version="1.0" xmlns="http://www.w3.org/2000/svg"
 width="701.000000pt" height="701.000000pt" viewBox="0 0 701.000000 701.000000"
 preserveAspectRatio="xMidYMid meet">
<metadata>
Created by potrace 1.14, written by Peter Selinger 2001-2017
</metadata>
<g transform="translate(0.000000,701.000000) scale(0.100000,-0.100000)"
fill="#000000" stroke="none">
<path d="M3334 7002 c-6 -4 -19 -47 -28 -97 -84 -430 -316 -1081 -548 -1537
-36 -71 -54 -119 -58 -156 l-5 -53 -105 -40 c-364 -137 -676 -337 -947 -607
-1000 -996 -1040 -2606 -90 -3650 436 -479 1037 -784 1684 -852 149 -16 533
-8 673 15 442 70 875 258 1230 533 117 91 326 296 423 417 296 366 488 802
564 1278 26 161 25 614 -1 777 -74 468 -270 913 -563 1275 -98 121 -306 326
-423 417 -200 155 -435 289 -665 379 l-120 48 -6 48 c-3 28 -30 98 -63 168
-225 469 -438 1045 -550 1487 -19 76 -38 142 -41 148 -9 15 -132 13 -142 -2
-4 -7 -10 -395 -13 -863 l-5 -850 -22 -3 -23 -3 0 851 c0 725 -2 854 -14 866
-15 15 -122 20 -142 6z m114 -1570 c3 -1505 3 -1540 -16 -1588 -11 -27 -43
-99 -71 -160 -88 -190 -90 -265 -12 -343 48 -48 84 -56 135 -31 35 17 42 17
67 4 40 -20 81 -17 120 9 l34 23 -3 -223 c-2 -176 0 -223 10 -224 7 0 -10 -9
-37 -19 -65 -25 -99 -59 -268 -268 -77 -95 -141 -171 -143 -170 -2 2 -12 47
-24 101 l-21 97 35 71 c19 39 38 86 42 105 13 68 -31 109 -69 66 -38 -42 -61
-115 -62 -195 -1 -76 -3 -80 -42 -131 -52 -66 -137 -132 -202 -157 -101 -38
-247 -15 -303 47 -47 53 -61 144 -30 204 57 114 218 105 367 -19 27 -22 53
-41 57 -41 21 0 98 46 98 58 0 10 -6 12 -17 7 -45 -18 -55 -15 -129 39 -88 65
-135 80 -221 73 -126 -10 -204 -89 -204 -206 -1 -195 206 -293 402 -190 42 22
94 64 151 120 l86 87 16 -86 c9 -48 13 -104 10 -125 -4 -20 -4 -37 -1 -37 3 0
54 60 113 133 59 72 112 138 119 145 7 8 2 -35 -12 -110 -34 -187 -35 -184 56
-147 56 24 69 45 21 34 -29 -6 -30 -5 -30 27 0 18 11 85 24 150 33 160 79 241
142 248 36 4 46 0 40 -15 -3 -9 1 -18 9 -21 23 -9 18 -22 -22 -57 -93 -82 -96
-207 -7 -306 l44 -49 0 -801 c0 -756 1 -801 18 -802 56 -4 -82 -18 -179 -18
-277 -2 -552 93 -748 258 l-35 28 18 104 c46 270 22 643 -55 880 -26 81 -39
95 -104 114 -135 39 -347 176 -426 276 l-32 40 24 32 c265 353 425 832 499
1487 29 266 41 468 49 890 l8 385 86 175 c252 520 434 1042 533 1538 4 19 11
22 47 22 l42 0 3 -1538z m237 1440 c20 -86 20 -113 15 -1651 l-5 -1564 -55
114 -55 114 -3 1385 c-2 762 -1 1454 3 1538 l7 152 37 0 36 0 20 -88z m-433
-4068 c-2 -21 -12 -57 -22 -79 l-18 -40 -1 57 c-1 64 13 112 32 105 7 -2 11
-18 9 -43z m450 -220 c-2 -92 0 -130 10 -142 9 -11 5 -10 -14 3 -48 35 -71 89
-66 153 4 47 10 60 37 84 17 15 32 28 34 28 1 0 1 -57 -1 -126z"/>
</g>
</svg>
