<?xml version="1.0" standalone="no"?>
<!DOCTYPE svg PUBLIC "-//W3C//DTD SVG 20010904//EN"
 "http://www.w3.org/TR/2001/REC-SVG-20010904/DTD/svg10.dtd">
<svg version="1.0" xmlns="http://www.w3.org/2000/svg"
 width="260.000000pt" height="260.000000pt" viewBox="0 0 260.000000 260.000000"
 preserveAspectRatio="xMidYMid meet">
<metadata>
Created by potrace 1.14, written by Peter Selinger 2001-2017
</metadata>
<g transform="translate(0.000000,260.000000) scale(0.100000,-0.100000)"
fill="#000000" stroke="none">
<path d="M1221 2453 c-27 -115 -106 -332 -162 -447 l-40 -81 -4 -150 c-5 -180
-12 -281 -30 -408 -19 -137 -93 -338 -153 -416 l-26 -34 47 -42 c25 -23 63
-50 84 -59 64 -28 67 -32 81 -77 17 -55 25 -244 12 -288 -8 -29 -6 -36 18 -58
15 -14 56 -40 92 -56 60 -29 73 -31 175 -31 100 0 115 2 160 26 28 15 63 38
79 51 26 21 29 29 26 68 -5 81 -4 204 2 244 12 74 24 92 74 115 57 25 110 63
125 91 8 16 5 29 -19 67 -59 94 -121 299 -138 456 -3 33 -7 68 -10 79 -5 28
-16 208 -18 322 -3 97 -4 103 -58 225 -62 140 -139 355 -158 443 -11 49 -16
57 -36 57 l-23 0 0 -557 0 -558 25 -54 c38 -79 41 -115 14 -134 -16 -11 -29
-13 -40 -7 -11 6 -21 5 -27 -1 -14 -14 -50 5 -58 31 -3 11 7 51 24 95 l31 77
0 554 0 554 -23 0 c-21 0 -25 -9 -46 -97z"/>
<path d="M425 2222 c-62 -13 -96 -76 -72 -134 8 -18 21 -39 30 -47 39 -32 124
-14 148 30 39 74 -26 167 -106 151z"/>
<path d="M1672 2174 c-46 -32 -15 -106 45 -106 36 0 66 37 58 71 -12 49 -60
65 -103 35z"/>
<path d="M594 2095 c-4 -9 -2 -21 4 -27 15 -15 44 -1 40 19 -4 23 -36 29 -44
8z"/>
<path d="M634 1647 c-78 -82 -94 -103 -129 -162 -104 -174 -146 -336 -140
-530 4 -107 7 -129 31 -215 17 -63 21 -72 59 -155 100 -218 320 -413 551 -489
222 -73 470 -59 687 38 91 40 195 113 276 195 l75 74 -36 18 c-20 10 -46 31
-57 45 l-21 27 -48 -45 c-162 -151 -373 -229 -605 -222 -56 1 -111 5 -122 7
-248 59 -409 160 -544 340 -62 82 -93 141 -125 239 -34 102 -40 145 -41 283 0
143 19 231 77 352 50 107 77 147 161 241 11 12 18 22 15 22 -3 0 -31 -28 -64
-63z"/>
<path d="M1945 1663 c68 -68 151 -217 185 -333 58 -198 40 -442 -46 -612 -13
-26 -13 -27 20 -38 19 -6 40 -18 46 -26 20 -24 28 -17 49 48 93 287 34 623
-151 860 -53 67 -110 128 -122 128 -5 0 4 -12 19 -27z"/>
<path d="M131 1294 c-95 -40 -73 -184 30 -200 101 -16 174 96 110 170 -37 43
-85 53 -140 30z"/>
<path d="M2253 719 c-15 -15 -5 -39 17 -39 22 0 32 24 17 39 -6 6 -14 11 -17
11 -3 0 -11 -5 -17 -11z"/>
<path d="M2024 653 c-31 -6 -72 -53 -77 -89 -6 -40 17 -87 50 -105 44 -23 109
-18 138 11 85 85 10 208 -111 183z"/>
</g>
</svg>
